<svg width="1280" height="467" viewBox="0 0 1280 467" fill="none" xmlns="http://www.w3.org/2000/svg">
<path d="M-3.58517 467H-124L93.0325 0H213.447L-3.58517 467Z" fill="#939393" fill-opacity="0.46"/>
<path d="M293.062 467H172.647L389.68 0H510.094L293.062 467Z" fill="#939393" fill-opacity="0.46"/>
<path d="M409.838 104.508H195.033L243.611 0H458.416L409.838 104.508Z" fill="#939393" fill-opacity="0.46"/>
<path d="M705.39 104.508H490.585L539.163 0H753.95L705.39 104.508Z" fill="#939393" fill-opacity="0.46"/>
<path d="M543.061 467H422.628L639.661 0H760.075L543.061 467Z" fill="#939393" fill-opacity="0.46"/>
<path d="M692.768 467H572.353L789.367 0H909.782L692.768 467Z" fill="#939393" fill-opacity="0.46"/>
<path d="M991.884 467H871.469L1088.48 0H1208.92L991.884 467Z" fill="#939393" fill-opacity="0.46"/>
<path d="M1297.42 104.508H1082.64L1131.19 0H1346L1297.42 104.508Z" fill="#939393" fill-opacity="0.46"/>
<path d="M812.7 467H597.895L646.454 362.492H861.259L812.7 467Z" fill="#939393" fill-opacity="0.46"/>
<path d="M831.151 231.87L721.874 467H842.289L951.566 231.87H831.151Z" fill="#939393" fill-opacity="0.46"/>
<path d="M1010.78 104.508H795.975L844.553 0H1059.36L1010.78 104.508Z" fill="#939393" fill-opacity="0.46"/>
<path d="M243.537 0L134.26 235.13H254.693L363.952 0H243.537Z" fill="#939393" fill-opacity="0.46"/>
</svg>
